# xmcd
#
# Track frame offsets: 
#        150
#        44886
#        45760
#        64363
#        114579
#        118866
#        131270
#        186671
#        192096
#        237798
#        249375
#        251220
#        257667
#        270304
#        271245
#        275070
#        282713
#        323250
#        325015
#        340833
#
# Disc length: 4580 seconds
#
# Revision: 0
# Processed by: cddbd v1.5.2PL0 Copyright (c) Steve Scherf et al.
# Submitted via: ExactAudioCopy v0.95b3
#
DISCID=3311e214
DTITLE=The Beatles  - AB  Road - Complete Purple Chick Set v1.1 Jan.23
DTITLE=Various Artist - D2  FLAC
DYEAR=1900
DGENRE=
TTITLE0=Get Back 23.20
TTITLE1=Roll announcement
TTITLE2=Rehearsals
TTITLE3=Get Back 23.21
TTITLE4=Get Back 23.22
TTITLE5=Rehearsals
TTITLE6=Get Back 23.23
TTITLE7=Get Back 23.24
TTITLE8=Get Back 23.25
TTITLE9=Get Back 23.26
TTITLE10=Get Back 23.27
TTITLE11=Words Of Love 23.28
TTITLE12=Get Back 23.29
TTITLE13=Roll announcement
TTITLE14=Get Back 23.29P
TTITLE15=Get Back 23.29P
TTITLE16=Blues instrumental 23.30
TTITLE17=Get Back 23.31
TTITLE18=Twenty Flight Rock 23.32
TTITLE19=Get Back 23.33
EXTD=
EXTT0=
EXTT1=
EXTT2=
EXTT3=
EXTT4=
EXTT5=
EXTT6=
EXTT7=
EXTT8=
EXTT9=
EXTT10=
EXTT11=
EXTT12=
EXTT13=
EXTT14=
EXTT15=
EXTT16=
EXTT17=
EXTT18=
EXTT19=
PLAYORDER=
